# xmcd
#
# Track frame offsets:
#	150
#	14242
#	27587
#	44635
#	57732
#	71567
#	100662
#	114482
#	124160
#	132470
#	143032
#	154497
#	168215
#	181582
#	193395
#	207782
#	220655
#	230942
#	242755
#	253012
#
# Disc length: 3528
#
# Revision: 1
# Processed by: cddbd v1.5.1PL0 Copyright (c) Steve Scherf et al.
# Submitted via: dBpowerAMP V4.0
# Normalized: r0:TDELIM( - )
#
DISCID=390dc614
DTITLE=Various Artist - That's Soul
DYEAR=1900
DGENRE=Soul
TTITLE0=Eddie Floyd - Knock on Wood
TTITLE1=Ben E. King - Spanish Harlem
TTITLE2=Otis Redding - Try a little Tenderness
TTITLE3=Booker T and The MG's - Green Onions
TTITLE4=Solomon Burke - Everybody Needs Somebody to Love
TTITLE5=Ray Charles - What'd I Say (part 1)
TTITLE6=Laverne Baker - Soul on Fire
TTITLE7=Ruth Brown - Lucky L:ips
TTITLE8=Yakety Yak - The Coasters
TTITLE9=Bar Kays - Soul Finger
TTITLE10=Rufus Thomas - Walking the Dog
TTITLE11=Otis Redding and Carla Thomans - Tramp
TTITLE12=King Curtis - Memphis Soul Stew
TTITLE13=Sam and Dave - Soul Man
TTITLE14=Clarence Carter - Patches
TTITLE15=Percy Sledge - When a Man loves a Woman
TTITLE16=Mar Kays - Philly Dog
TTITLE17=The Drifters - Up on the Roof
TTITLE18=Aretha Franklin - Think
TTITLE19=Wilson Picket - In the Midnight Hour
EXTD=
EXTT0=
EXTT1=
EXTT2=
EXTT3=
EXTT4=
EXTT5=
EXTT6=
EXTT7=
EXTT8=
EXTT9=
EXTT10=
EXTT11=
EXTT12=
EXTT13=
EXTT14=
EXTT15=
EXTT16=
EXTT17=
EXTT18=
EXTT19=
PLAYORDER=
